# xmcd CD database file
# Copyright (C) 1997 Ti Kan
#
# Track frame offsets:
#  150
#  21120
#  40710
#  61242
#  72867
#  88912
#  108907
#  131685
#  150065
#  170162
#  201240
#  221947
#  239382
#  250340
#  268847
#  289812
#  306780
#
# Disc length: 4388 seconds
#
# Revision: 1
# Processed by: cddbd v1.4b41PL1 Copyright (c) Steve Scherf et al.
# Submitted via: CDWizzard Release:4.32
#
DISCID=f9112211
DTITLE=Various Artist - Noise FromThe New Scene
DYEAR=1900
DGENRE=
TTITLE0=Gone To Pot
TTITLE1=Broken
TTITLE2=Astral America
TTITLE3=Cold Beverage
TTITLE4=Clean My Wounds
TTITLE5=Lament
TTITLE6=Twinkle
TTITLE7=International Times
TTITLE8=Tomorrow
TTITLE9=Open Up
TTITLE10=Legacy Of Hate
TTITLE11=Chura Liya
TTITLE12=Corrupt Cop
TTITLE13=All For The Money
TTITLE14=Clown
TTITLE15=Rise Up
TTITLE16=Art Of Me
EXTD=
EXTT0=
EXTT1=
EXTT2=
EXTT3=
EXTT4=
EXTT5=
EXTT6=
EXTT7=
EXTT8=
EXTT9=
EXTT10=
EXTT11=
EXTT12=
EXTT13=
EXTT14=
EXTT15=
EXTT16=
PLAYORDER=
